<?xml version="1.0" encoding="UTF-8"?>
<!DOCTYPE svg PUBLIC "-//W3C//DTD SVG 1.1//EN" "http://www.w3.org/Graphics/SVG/1.1/DTD/svg11.dtd">
<!-- Creator: CorelDRAW X7 -->
<svg xmlns="http://www.w3.org/2000/svg" xml:space="preserve" width="42.3332mm" height="55.0332mm" version="1.1" style="shape-rendering:geometricPrecision; text-rendering:geometricPrecision; image-rendering:optimizeQuality; fill-rule:evenodd; clip-rule:evenodd"
viewBox="0 0 4233 5503"
 xmlns:xlink="http://www.w3.org/1999/xlink">
 <defs>
  <style type="text/css">
   <![CDATA[
    .str0 {stroke:#C7C5C9;stroke-width:67.73}
    .str1 {stroke:#3BA392;stroke-width:42.33}
    .fil1 {fill:none}
    .fil2 {fill:#3BA392}
    .fil0 {fill:#C7C5C9}
   ]]>
  </style>
 </defs>
 <g id="Camada_x0020_1">
  <metadata id="CorelCorpID_0Corel-Layer"/>
  <rect class="fil0 str0" x="141" y="212" width="3951" height="5080" rx="169" ry="169"/>
  <rect class="fil1 str1" x="384" y="1767" width="611" height="611" rx="58" ry="61"/>
  <rect class="fil1 str1" x="1335" y="1767" width="611" height="611" rx="58" ry="61"/>
  <rect class="fil1 str1" x="2287" y="1767" width="611" height="611" rx="58" ry="61"/>
  <rect class="fil1 str1" x="3238" y="1767" width="611" height="611" rx="58" ry="61"/>
  <rect class="fil1 str1" x="384" y="2596" width="611" height="611" rx="58" ry="61"/>
  <rect class="fil1 str1" x="1335" y="2596" width="611" height="611" rx="58" ry="61"/>
  <rect class="fil1 str1" x="2287" y="2596" width="611" height="611" rx="58" ry="61"/>
  <rect class="fil1 str1" x="3238" y="2596" width="611" height="611" rx="58" ry="61"/>
  <rect class="fil1 str1" x="384" y="3425" width="611" height="611" rx="58" ry="61"/>
  <rect class="fil1 str1" x="1335" y="3425" width="611" height="611" rx="58" ry="61"/>
  <rect class="fil1 str1" x="2287" y="3425" width="611" height="611" rx="58" ry="61"/>
  <rect class="fil1 str1" x="384" y="4254" width="611" height="611" rx="58" ry="61"/>
  <rect class="fil1 str1" x="1335" y="4254" width="611" height="611" rx="58" ry="61"/>
  <rect class="fil1 str1" x="2287" y="4254" width="611" height="611" rx="58" ry="61"/>
  <rect class="fil2" x="3238" y="3426" width="611" height="1452" rx="58" ry="145"/>
  <rect class="fil1 str1" x="383" y="426" width="3458" height="900" rx="43" ry="42"/>
 </g>
</svg>
