<?xml version="1.0" encoding="UTF-8"?>
<!DOCTYPE svg PUBLIC "-//W3C//DTD SVG 1.1//EN" "http://www.w3.org/Graphics/SVG/1.1/DTD/svg11.dtd">
<!-- Creator: CorelDRAW X7 -->
<svg xmlns="http://www.w3.org/2000/svg" xml:space="preserve" width="42.3332mm" height="55.0332mm" version="1.1" style="shape-rendering:geometricPrecision; text-rendering:geometricPrecision; image-rendering:optimizeQuality; fill-rule:evenodd; clip-rule:evenodd"
viewBox="0 0 4233 5503"
 xmlns:xlink="http://www.w3.org/1999/xlink">
 <defs>
  <style type="text/css">
   <![CDATA[
    .fil1 {fill:#3BA392}
    .fil0 {fill:#C7C5C9}
    .fnt0 {font-weight:900;font-size:846.67px;font-family:'Roboto Black'}
   ]]>
  </style>
 </defs>
 <g id="Camada_x0020_1">
  <metadata id="CorelCorpID_0Corel-Layer"/>
  <rect class="fil0" x="141" y="212" width="3951" height="5080" rx="169" ry="169"/>
  <g id="_1688025477568">
   <path class="fil1" d="M872 3971l0 -2011c0,-87 16,-142 64,-188 1,-1 2,-2 3,-3 50,-47 91,-48 160,-48 54,0 296,6 338,-7 51,-16 56,-62 104,-128 19,-26 34,-43 53,-67 54,-68 192,-155 280,-185 334,-113 673,6 860,317 40,68 46,70 162,70 65,0 283,-8 336,10l69 44c44,45 60,99 60,185l0 2011c0,63 -12,131 -42,165 -29,32 -76,74 -134,74l-2137 0c-58,0 -104,-42 -133,-74 -31,-34 -43,-102 -43,-165zm1211 -2828l74 0c80,3 160,17 237,43l147 66c126,77 246,184 317,318 82,0 164,0 245,0 100,0 139,-2 208,32 93,46 194,151 194,289l0 2149c0,162 -158,320 -320,320l-2137 0c-161,0 -320,-158 -320,-320l0 -2149c0,-138 101,-243 195,-289 70,-35 111,-32 213,-32 80,0 160,0 239,0 57,-107 174,-232 279,-293 67,-40 105,-66 190,-92 78,-25 159,-39 239,-42z"/>
   <path class="fil1" d="M1821 1595c50,-33 141,-86 220,-88 0,118 99,117 134,71 14,-19 17,-39 17,-71 79,2 170,55 220,88 -22,33 -38,30 -38,82 0,33 31,59 61,66 38,8 61,-19 84,-34 20,14 49,68 60,96 17,42 24,78 34,123 -34,0 -49,-4 -71,11 -41,30 -41,94 0,123 22,16 37,11 71,11 -9,38 -14,68 -28,104l-41 91c-33,-22 -29,-38 -82,-38 -33,0 -63,32 -67,65 -4,42 25,61 42,86 -41,61 -204,119 -301,119 -81,0 -139,-6 -210,-35 -40,-17 -109,-53 -130,-84 17,-25 46,-44 42,-86 -5,-41 -36,-65 -80,-65 -33,0 -48,24 -69,38l-41 -91c-14,-36 -19,-66 -28,-104 34,0 49,5 71,-11 41,-29 41,-93 0,-123 -22,-15 -37,-11 -71,-11 11,-45 17,-81 34,-123 12,-28 41,-82 60,-96 23,15 46,42 85,34 41,-9 60,-38 60,-78 0,-34 -24,-49 -38,-70zm277 1056c273,0 499,-141 614,-385 32,-70 57,-185 58,-262 2,-73 -26,-195 -56,-264 -28,-63 -51,-96 -91,-148 -55,-71 -142,-139 -223,-179 -171,-84 -396,-84 -566,0 -33,16 -68,38 -98,59 -26,19 -67,53 -87,77 -95,113 -166,212 -179,380 -2,28 -8,53 -7,75 2,78 26,192 59,262 102,220 329,385 576,385z"/>
   <path class="fil1" d="M2041 1753l0 238c0,110 151,110 151,0 0,-79 14,-260 -20,-300 -43,-49 -131,-25 -131,62z"/>
  </g>
  <text x="1234" y="3561"  class="fil1 fnt0">I</text>
  <text x="1579" y="3561"  class="fil1 fnt0">M</text>
  <text x="2410" y="3561"  class="fil1 fnt0">C</text>
 </g>
</svg>
